<?xml version="1.0" encoding="utf-8"?>
<!-- Generator: Adobe Illustrator 16.0.0, SVG Export Plug-In . SVG Version: 6.00 Build 0)  -->
<!DOCTYPE svg PUBLIC "-//W3C//DTD SVG 1.1//EN" "http://www.w3.org/Graphics/SVG/1.1/DTD/svg11.dtd">
<svg version="1.1" id="Layer_1" xmlns="http://www.w3.org/2000/svg" xmlns:xlink="http://www.w3.org/1999/xlink" x="0px" y="0px"
	 width="200px" height="60px"  viewBox="0 0 1600 600" enable-background="new 0 0 1600 600" xml:space="preserve">
<g>
	<g>
		<path fill="#6937E2" d="M233.683,315.315v-69.278c0-5.896,1.326-10.318,3.979-13.266c2.653-2.948,6.142-4.422,10.465-4.422
			c4.521,0,8.107,1.474,10.76,4.422c2.653,2.948,3.98,7.37,3.98,13.266v70.85c0,8.058,0.9,14.789,2.702,20.194
			c1.801,5.404,4.995,9.598,9.581,12.578c4.585,2.981,11.006,4.471,19.26,4.471c11.399,0,19.457-3.029,24.174-9.09
			c4.717-6.059,7.075-15.246,7.075-27.563v-71.44c0-5.96,1.31-10.399,3.931-13.315c2.619-2.915,6.125-4.373,10.515-4.373
			c4.388,0,7.942,1.458,10.662,4.373c2.718,2.916,4.078,7.354,4.078,13.315v69.278c0,11.269-1.098,20.67-3.292,28.203
			c-2.195,7.534-6.338,14.15-12.431,19.85c-5.242,4.849-11.334,8.387-18.278,10.612c-6.944,2.227-15.068,3.342-24.37,3.342
			c-11.072,0-20.604-1.196-28.595-3.587c-7.994-2.391-14.511-6.093-19.555-11.104c-5.045-5.012-8.746-11.431-11.104-19.26
			C234.862,335.543,233.683,326.191,233.683,315.315z"/>
		<path fill="#6937E2" d="M458.025,247.512l32.625,96.596l32.723-97.284c1.703-5.11,2.98-8.663,3.832-10.662
			c0.851-1.998,2.26-3.798,4.226-5.404c1.965-1.605,4.651-2.408,8.058-2.408c2.489,0,4.798,0.624,6.928,1.867
			c2.128,1.245,3.798,2.899,5.012,4.962c1.211,2.063,1.818,4.144,1.818,6.24c0,1.442-0.197,2.997-0.59,4.668
			c-0.393,1.67-0.884,3.309-1.474,4.913c-0.59,1.606-1.179,3.26-1.769,4.962l-34.885,94.139c-1.245,3.604-2.49,7.026-3.734,10.27
			c-1.246,3.242-2.687,6.093-4.324,8.549c-1.639,2.457-3.817,4.472-6.535,6.044c-2.719,1.572-6.043,2.358-9.974,2.358
			s-7.256-0.771-9.974-2.31c-2.719-1.538-4.914-3.57-6.584-6.093c-1.67-2.521-3.129-5.388-4.373-8.599
			c-1.245-3.209-2.49-6.615-3.734-10.22l-34.295-93.353c-0.59-1.703-1.196-3.373-1.818-5.012c-0.623-1.637-1.147-3.405-1.572-5.306
			c-0.427-1.899-0.639-3.504-0.639-4.815c0-3.341,1.342-6.388,4.029-9.139c2.685-2.751,6.059-4.127,10.121-4.127
			c4.978,0,8.5,1.523,10.564,4.569C453.751,235.965,455.864,240.83,458.025,247.512z"/>
		<path fill="#6937E2" d="M626.651,359.535V246.038c0-5.896,1.342-10.318,4.029-13.266c2.686-2.948,6.157-4.422,10.417-4.422
			c4.388,0,7.942,1.458,10.662,4.373c2.718,2.916,4.078,7.354,4.078,13.315v113.498c0,5.963-1.36,10.417-4.078,13.364
			c-2.719,2.948-6.273,4.423-10.662,4.423c-4.193,0-7.649-1.491-10.367-4.472C628.01,369.87,626.651,365.432,626.651,359.535z"/>
	</g>
	<g>
		<path fill="#6937E2" d="M710.444,207.415H176.018l0.098,149.665c0,6.028-1.344,10.5-4.029,13.414
			c-2.688,2.913-6.159,4.371-10.417,4.371c-4.324,0-7.846-1.475-10.564-4.421c-2.719-2.948-4.078-7.403-4.078-13.364l-0.099-149.665
			H70.371c-4.979,0-8.681-1.096-11.104-3.292c-2.425-2.194-3.636-5.093-3.636-8.697c0-3.734,1.26-6.682,3.783-8.844
			c2.521-2.162,6.174-3.242,10.957-3.242h640.073c5.044,0,8.794,1.115,11.252,3.341c2.455,2.228,3.684,5.144,3.684,8.746
			c0,3.604-1.244,6.502-3.733,8.697C719.156,206.319,715.422,207.415,710.444,207.415z"/>
	</g>
	<g>
		<path fill="#6937E2" d="M978.051,315.315v-69.278c0-5.896,1.327-10.318,3.98-13.266c2.652-2.948,6.142-4.422,10.465-4.422
			c4.521,0,8.107,1.474,10.761,4.422c2.652,2.948,3.979,7.37,3.979,13.266v70.85c0,8.058,0.899,14.789,2.702,20.194
			c1.801,5.404,4.995,9.598,9.581,12.578c4.585,2.981,11.006,4.471,19.261,4.471c11.398,0,19.456-3.029,24.173-9.09
			c4.717-6.059,7.075-15.246,7.075-27.563v-71.44c0-5.96,1.311-10.399,3.931-13.315c2.62-2.915,6.125-4.373,10.515-4.373
			c4.389,0,7.943,1.458,10.662,4.373c2.718,2.916,4.078,7.354,4.078,13.315v69.278c0,11.269-1.098,20.67-3.292,28.203
			c-2.195,7.534-6.338,14.15-12.431,19.85c-5.242,4.849-11.334,8.387-18.277,10.612c-6.945,2.227-15.068,3.342-24.37,3.342
			c-11.072,0-20.604-1.196-28.596-3.587c-7.993-2.391-14.512-6.093-19.556-11.104c-5.045-5.012-8.745-11.431-11.104-19.26
			C979.23,335.543,978.051,326.191,978.051,315.315z"/>
		<path fill="#6937E2" d="M1202.395,247.512l32.624,96.596l32.723-97.284c1.703-5.11,2.98-8.663,3.833-10.662
			c0.851-1.998,2.26-3.798,4.226-5.404c1.965-1.605,4.65-2.408,8.058-2.408c2.489,0,4.798,0.624,6.928,1.867
			c2.128,1.245,3.799,2.899,5.012,4.962c1.211,2.063,1.817,4.144,1.817,6.24c0,1.442-0.196,2.997-0.589,4.668
			c-0.394,1.67-0.885,3.309-1.475,4.913c-0.589,1.606-1.179,3.26-1.769,4.962l-34.885,94.139c-1.245,3.604-2.49,7.026-3.734,10.27
			c-1.245,3.242-2.687,6.093-4.323,8.549c-1.639,2.457-3.817,4.472-6.535,6.044c-2.719,1.572-6.043,2.358-9.974,2.358
			s-7.257-0.771-9.975-2.31c-2.719-1.538-4.913-3.57-6.583-6.093c-1.671-2.521-3.13-5.388-4.373-8.599
			c-1.245-3.209-2.491-6.615-3.734-10.22l-34.295-93.353c-0.59-1.703-1.196-3.373-1.818-5.012c-0.623-1.637-1.146-3.405-1.572-5.306
			c-0.427-1.899-0.639-3.504-0.639-4.815c0-3.341,1.342-6.388,4.029-9.139c2.686-2.751,6.059-4.127,10.121-4.127
			c4.978,0,8.5,1.523,10.563,4.569S1200.232,240.83,1202.395,247.512z"/>
		<path fill="#6937E2" d="M1371.021,359.535V246.038c0-5.896,1.342-10.318,4.028-13.266c2.686-2.948,6.157-4.422,10.416-4.422
			c4.389,0,7.943,1.458,10.662,4.373c2.718,2.916,4.078,7.354,4.078,13.315v113.498c0,5.963-1.36,10.417-4.078,13.364
			c-2.719,2.948-6.273,4.423-10.662,4.423c-4.192,0-7.649-1.491-10.367-4.472C1372.379,369.87,1371.021,365.432,1371.021,359.535z"
			/>
	</g>
	<g>
		<path fill="#6937E2" d="M1454.813,207.415H920.387l0.098,149.666c0,6.027-1.344,10.5-4.029,13.414
			c-2.688,2.912-6.157,4.37-10.416,4.37c-4.324,0-7.846-1.474-10.564-4.42c-2.719-2.949-4.077-7.404-4.077-13.364l-0.1-149.666
			h-76.559c-4.979,0-8.68-1.096-11.104-3.292c-2.425-2.194-3.636-5.093-3.636-8.697c0-3.734,1.261-6.682,3.784-8.844
			c2.521-2.162,6.174-3.242,10.956-3.242h640.074c5.044,0,8.794,1.115,11.252,3.341c2.455,2.228,3.684,5.144,3.684,8.746
			c0,3.604-1.244,6.502-3.733,8.697C1463.525,206.318,1459.791,207.415,1454.813,207.415z"/>
	</g>
</g>
</svg>
