<?xml version="1.0" encoding="UTF-8" standalone="no"?>
<!-- Created with Inkscape (http://www.inkscape.org/) -->

<svg
   xmlns:dc="http://purl.org/dc/elements/1.1/"
   xmlns:cc="http://creativecommons.org/ns#"
   xmlns:rdf="http://www.w3.org/1999/02/22-rdf-syntax-ns#"
   xmlns:svg="http://www.w3.org/2000/svg"
   xmlns="http://www.w3.org/2000/svg"
   xmlns:sodipodi="http://sodipodi.sourceforge.net/DTD/sodipodi-0.dtd"
   xmlns:inkscape="http://www.inkscape.org/namespaces/inkscape"
   inkscape:version="0.48.3.1 r9886"
   version="1.1"
   id="svg3506"
   style="margin-top:-150px;"
   height="800px"
   width="800px"
   sodipodi:docname="hand.svg">
  <sodipodi:namedview
     id="base"
     pagecolor="#ffffff"
     bordercolor="#666666"
     borderopacity="1.0"
     inkscape:pageopacity="0.0"
     inkscape:pageshadow="2"
     inkscape:zoom="0.49893373"
     inkscape:cx="551.48593"
     inkscape:cy="280.47136"
     inkscape:current-layer="layer1"
     inkscape:document-units="px"
     showgrid="false"
     inkscape:window-width="1317"
     inkscape:window-height="944"
     inkscape:window-x="49"
     inkscape:window-y="24"
     inkscape:window-maximized="1" />
  <defs
     id="defs3508" />
  <metadata
     id="metadata3511">
    <rdf:RDF>
      <cc:Work
         rdf:about="">
        <dc:format>image/svg+xml</dc:format>
        <dc:type
           rdf:resource="http://purl.org/dc/dcmitype/StillImage" />
        <dc:title></dc:title>
      </cc:Work>
    </rdf:RDF>
  </metadata>
  <g
     inkscape:groupmode="layer"
     inkscape:label="Layer 1"
     id="layer1">
    <path
       sodipodi:type="arc"
       style="fill:#6937e2;stroke:#6937e2;stroke-width:6.25749493;stroke-miterlimit:4;stroke-dasharray:none"
       id="path4980"
       sodipodi:cx="-604.2077"
       sodipodi:cy="933.82239"
       sodipodi:rx="505.23273"
       sodipodi:ry="463.80133"
       d="m -98.974976,933.82239 a 505.23273,463.80133 0 1 1 -1010.465424,0 505.23273,463.80133 0 1 1 1010.465424,0 z"
       transform="matrix(0.48810432,0,0,0.51218145,676.77256,-179.33033)" />
    <g
       id="g4712"
       style="stroke:#fff"
       transform="matrix(1.0420768,0,0,1.0437472,-25.876084,-26.526407)">
      <path
         inkscape:connector-curvature="0"
         id="path4686"
         d="m 293.48463,515.45803 c -12.37823,-5.5125 -23.66348,-11.73668 -35.88409,-19.79121 -10.1084,-6.66239 -24.77378,-17.95582 -24.77378,-19.07765 0,-0.6583 6.89752,-10.35573 20.44023,-28.73754 16.30562,-22.13198 22.45041,-31.38216 24.79033,-37.31858 2.76932,-7.02583 4.75091,-20.4368 7.14846,-48.37927 1.2131,-14.13821 1.71109,-17.17698 4.37108,-26.67298 3.55424,-12.68839 7.34745,-23.80002 9.67286,-28.33514 2.2014,-4.29327 7.24725,-9.03984 14.47457,-13.61605 3.97002,-2.51376 6.81517,-4.97689 8.8276,-7.64233 3.15261,-4.17561 8.06446,-7.95051 9.32855,-7.16926 1.10703,0.68418 0.90943,8.63467 -0.34709,13.96534 -1.28367,5.44587 -4.76161,11.42637 -10.56885,18.17369 -2.31955,2.69504 -4.88139,6.40122 -5.69298,8.23597 -2.64702,5.98402 -2.4984,18.89227 0.21751,18.89227 1.71655,0 11.33485,-10.77366 19.2322,-21.54242 4.48936,-6.12164 16.87149,-24.21727 27.51585,-40.21251 10.64435,-15.99525 20.21477,-29.79771 21.26759,-30.67213 6.45413,-5.36047 9.68313,3.1799 5.90509,15.61828 -2.64642,8.71279 -6.1251,15.18082 -16.56471,30.79944 -10.98598,16.43605 -15.96337,24.47544 -21.41912,34.59582 l -3.68223,6.83054 3.20253,1.5559 3.20254,1.55592 3.85733,-4.82954 c 2.12154,-2.65626 11.07027,-14.03893 19.88606,-25.29485 39.1256,-49.95514 42.63813,-53.77048 48.74834,-52.95093 1.5079,0.20225 3.59419,0.92635 4.6362,1.6091 2.42071,1.58611 2.56338,5.56464 0.35505,9.90128 -2.99543,5.88236 -16.16827,26.63266 -49.53414,78.02786 -3.67147,5.65535 -4.68157,7.73483 -4.09846,8.43745 0.42561,0.51282 1.19356,0.9324 1.70655,0.9324 0.513,0 4.64522,-3.95842 9.18271,-8.79648 16.5625,-17.65965 22.56994,-25.44953 31.70356,-41.11012 5.33317,-9.14431 9.49803,-15.31367 11.74204,-17.39335 2.57752,-2.38877 6.62313,-2.2203 9.55333,0.39783 1.92923,1.72377 2.32761,2.65591 2.61472,6.11805 0.31656,3.81733 0.0932,4.56482 -3.41628,11.43039 -10.60049,20.73792 -40.86772,66.26501 -48.52228,72.9858 -2.41998,2.12477 -2.58217,2.49408 -1.82509,4.15569 0.71254,1.56385 1.15205,1.75944 3.08489,1.37287 3.71467,-0.74293 8.97027,-5.3182 22.88883,-19.92589 21.2278,-22.27882 22.57559,-23.5964 24.13737,-23.5964 2.31234,0 5.13616,2.69408 6.06167,5.78317 1.17197,3.91167 0.13669,6.97347 -5.00356,14.79785 -6.70021,10.19895 -14.25981,18.85763 -32.70457,37.45941 -19.73108,19.89906 -34.3565,32.71963 -51.00454,44.7103 l -11.55596,8.32313 -20.4653,33.0027 c -11.25591,18.15148 -21.12054,34.02462 -21.9214,35.27363 l -1.4561,2.27092 -9.31511,-4.14837 0,0 z"
         style="fill:#6937e2;fill-opacity:1;stroke:#fff;stroke-width:2.1542418;stroke-miterlimit:4;stroke-dasharray:none" />
      <path
         inkscape:connector-curvature="0"
         id="path4688"
         d="m 290.29971,312.13439 c -0.14661,-25.4249 -3.70416,-52.76257 -7.94895,-61.08304 -1.90525,-3.73461 -21.01875,-34.07182 -28.89088,-45.85602 -6.81851,-10.20697 -17.2357,-24.32372 -27.94285,-37.86651 -3.48359,-4.40616 -6.3338,-8.34001 -6.3338,-8.7419 0,-1.02825 14.90757,-14.85774 23.01953,-21.3548 7.54543,-6.04333 21.93796,-15.7938 30.00321,-20.32621 2.89871,-1.62898 5.38842,-2.96178 5.53271,-2.96178 0.14428,0 6.82043,8.13704 14.83588,18.0823 26.56733,32.96373 53.86275,63.86807 64.34517,72.85272 3.03632,2.60247 9.00018,7.34354 13.25302,10.53571 4.25284,3.19216 7.64577,6.01837 7.53985,6.28045 -0.10592,0.26209 -2.21392,2.15098 -4.68443,4.19754 -8.65031,7.16585 -18.33978,20.03496 -31.20337,41.44288 -5.36125,8.92233 -6.18957,9.97446 -6.92523,8.79649 -1.09584,-1.75472 -4.81215,-1.74659 -7.70399,0.0169 -1.21716,0.74222 -4.28696,3.66925 -6.82176,6.5045 -2.99323,3.348 -6.78417,6.52927 -10.8148,9.0755 -9.66025,6.1026 -12.41096,9.54698 -16.8693,21.12341 l -2.35067,6.10368 -0.0394,-6.82176 1e-5,-3e-5 z"
         style="fill:#fff;fill-opacity:1;stroke:#fff;stroke-width:2.1542418;stroke-miterlimit:4;stroke-dasharray:none" />
      <path
         inkscape:connector-curvature="0"
         id="path4690"
         d="m 371.84524,211.86095 c -9.64067,-7.23861 -19.99305,-16.74531 -28.44748,-26.12363 l -4.99107,-5.5365 1.84504,-4.54066 c 5.57742,-13.72611 9.03524,-33.40527 11.4119,-64.94739 0.62493,-8.29383 1.46337,-16.743212 1.86321,-18.776401 0.83484,-4.24524 -0.0381,-3.886889 13.22196,-5.42784 13.88374,-1.613431 54.20396,-0.820029 56.12846,1.104468 0.21295,0.212957 -0.11194,1.943025 -0.72201,3.844596 -1.68269,5.244994 -3.8257,16.186337 -4.89655,24.999817 -0.61005,5.02097 -0.9602,16.0094 -0.96103,30.15939 -10e-4,22.28007 0.62035,30.7785 2.93918,40.18021 l 1.05467,4.27618 -3.0747,2.96953 c -1.69109,1.63324 -7.27547,5.66452 -12.40975,8.95841 -5.13427,3.29389 -12.36634,8.19251 -16.07125,10.88583 -3.70491,2.69332 -6.94637,4.89695 -7.20325,4.89695 -0.25687,0 -4.61617,-3.11534 -9.68733,-6.92296 z"
         style="fill:#fff;fill-opacity:1;stroke:#eeeeee;stroke-width:2.1542418;stroke-miterlimit:4;stroke-dasharray:none" />
      <path
         inkscape:connector-curvature="0"
         id="path4692"
         d="m 378.46445,437.15062 c -1.8074,-1.14621 -3.48192,-2.40073 -3.72115,-2.78783 -0.23924,-0.38709 3.68058,-4.19133 8.71071,-8.45386 11.74948,-9.95651 39.96237,-37.8643 48.5957,-48.07016 17.44177,-20.61874 21.45783,-29.14609 17.66338,-37.50488 -2.66312,-5.86659 -9.50343,-7.64842 -14.1934,-3.69722 -1.11481,0.93921 -8.61752,8.73422 -16.67267,17.32222 -8.05515,8.58802 -14.78714,15.47315 -14.95998,15.30032 -0.17284,-0.17284 1.61124,-2.99863 3.96463,-6.27952 17.14252,-23.89864 37.97306,-58.18334 40.31754,-66.35806 0.96668,-3.37064 -0.26926,-10.08035 -2.36229,-12.82446 -2.33643,-3.06322 -7.27638,-5.05146 -10.87395,-4.37655 -4.2918,0.80515 -8.09515,5.10804 -15.39755,17.41995 -3.7007,6.23941 -8.40312,13.80971 -10.44983,16.8229 -4.09512,6.02887 -13.31974,17.31516 -13.7778,16.85709 -0.15924,-0.15923 4.79357,-8.15811 11.00624,-17.77529 27.18653,-42.08461 31.92591,-50.66431 30.74338,-55.65476 -1.08032,-4.55915 -5.65634,-7.42914 -11.84528,-7.42914 -3.08233,0 -4.24988,0.40858 -7.02436,2.45811 -1.83016,1.35196 -4.50021,3.6947 -5.93344,5.20609 -2.91635,3.07537 -21.10699,25.82603 -42.56464,53.23472 -7.82503,9.99522 -14.36929,18.03116 -14.54278,17.85767 -0.60828,-0.60828 7.8877,-14.64333 18.85669,-31.15057 6.08958,-9.16422 12.49433,-19.50458 14.23277,-22.97858 9.22939,-18.44346 8.86051,-33.96249 -0.80728,-33.96249 -2.75183,0 -4.78717,0.87794 -7.28319,3.14158 -0.92543,0.83927 -9.5233,13.32042 -19.10637,27.73589 -9.58307,14.41547 -20.67544,30.76574 -24.64971,36.33395 -7.80713,10.93828 -18.55919,24.70291 -19.29635,24.70291 -0.87669,0 0.47081,-8.77794 1.81344,-11.81319 0.74507,-1.68435 2.94204,-4.81529 4.88216,-6.95763 7.5235,-8.30772 12.4413,-18.98679 12.4413,-27.01647 0,-3.32442 16.9503,-31.35329 26.5923,-43.97279 8.19766,-10.72916 19.7329,-20.26386 43.16631,-35.68007 11.09363,-7.2982 11.57467,-7.72468 28.81317,-25.54498 26.68918,-27.58995 35.21952,-37.26002 51.77659,-58.69442 5.03375,-6.51658 9.45234,-11.95486 9.8191,-12.08506 1.15158,-0.40883 19.89084,10.54956 33.05561,19.33033 15.78639,10.52937 32.94478,25.42029 38.37337,33.30238 l 2.71004,3.93485 -6.38931,6.94305 c -22.54866,24.50291 -64.30052,73.81633 -69.1743,81.70227 -2.24172,3.62718 -2.14795,7.52579 0.31287,13.00801 3.11412,6.93764 3.93698,9.63049 5.0387,16.48941 1.90948,11.88786 2.59014,20.73345 2.57879,33.51288 -0.0129,14.56883 -0.73827,18.69781 -4.97636,28.32859 -2.9967,6.80978 -5.69417,15.78732 -9.7635,32.49417 -1.37987,5.66509 -2.92711,10.80477 -3.43832,11.4215 -0.51122,0.61673 -3.10944,2.8611 -5.77384,4.98748 -6.73017,5.37116 -7.83416,6.66201 -13.57974,15.87825 -4.71669,7.56585 -7.34167,10.9096 -8.56448,10.9096 -0.88592,0 -4.93546,-6.83658 -6.86086,-11.58276 -1.24279,-3.06352 -1.87362,-6.00893 -1.91021,-8.91898 -0.0623,-4.95207 1.63596,-8.97906 8.46366,-20.06982 6.24797,-10.14907 7.14529,-12.9532 7.1693,-22.40412 0.0123,-4.87022 -0.28805,-8.35097 -0.76164,-8.82456 -0.56402,-0.56402 -4.02756,2.35838 -12.42324,10.48225 l -11.64117,11.2643 -18.72725,27.9185 c -15.23945,22.71891 -19.63626,28.76009 -23.60805,32.43736 -7.16589,6.63452 -12.25651,7.79962 -18.04346,4.12964 z"
         style="fill:#fff;fill-opacity:1;stroke:#eeeeee;stroke-width:2.1542418;stroke-miterlimit:4;stroke-dasharray:none" />
      <path
         inkscape:connector-curvature="0"
         id="path4694"
         d="m 560.27153,361.43601 c -29.42335,-10.36431 -54.02794,-19.04943 -54.67686,-19.30026 -1.08577,-0.41969 -1.09131,-0.84676 -0.0695,-5.3551 2.90453,-12.81546 0.0889,-53.63905 -4.4485,-64.49859 -0.57783,-1.38294 -0.88271,-2.51443 -0.67751,-2.51443 0.2052,0 1.88518,1.26399 3.73328,2.80888 8.65861,7.23797 20.5338,12.18144 35.46997,14.76563 14.93298,2.58364 43.63328,5.63795 70.9348,7.54895 6.12163,0.42849 12.18044,0.94366 13.46401,1.14483 l 2.33376,0.36577 -6e-4,13.79051 c -6.6e-4,15.22278 -0.75887,25.12834 -2.86755,37.46277 -2.48488,14.53502 -7.42489,32.7239 -8.8706,32.66117 -0.45521,-0.0198 -24.90131,-8.51582 -54.32467,-18.88013 z"
         style="fill:#fff;fill-opacity:1;stroke:#eeeeee;stroke-width:2.1542418;stroke-miterlimit:4;stroke-dasharray:none" />
      <path
         inkscape:connector-curvature="0"
         id="path4696"
         d="m 559.19441,450.2378 c -34.47319,-14.32205 -67.64778,-24.90297 -87.16304,-27.80034 -4.10085,-0.60884 -7.56496,-1.21585 -7.69803,-1.34893 -0.13308,-0.13307 0.50987,-1.35559 1.42877,-2.71672 0.91889,-1.36112 3.20934,-5.00337 5.08988,-8.09387 2.78452,-4.5761 4.66704,-6.61254 10.14196,-10.97117 3.69753,-2.94363 7.03933,-5.94354 7.42622,-6.66645 0.3869,-0.72292 2.18231,-7.25723 3.98981,-14.5207 4.02756,-16.18479 5.75802,-22.07121 7.93652,-26.99718 l 1.68103,-3.80112 7.61549,4.95723 c 13.75834,8.95586 45.67327,24.49255 80.7879,39.32884 8.88625,3.75452 16.43037,7.08693 16.76472,7.40535 1.32137,1.25842 -9.76551,22.03343 -18.97411,35.5544 -3.61334,5.30546 -14.49348,19.55331 -15.98474,20.93247 -0.0643,0.0595 -5.93338,-2.30833 -13.04238,-5.26181 z"
         style="fill:#fff;fill-opacity:1;stroke:#eeeeee;stroke-width:2.1542418;stroke-miterlimit:4;stroke-dasharray:none" />
      <path
         inkscape:connector-curvature="0"
         id="path4698"
         d="m 417.76503,532.73195 c -0.26075,-1.46305 -1.88593,-8.47654 -3.6115,-15.58554 -7.43995,-30.65101 -14.84992,-49.50316 -22.94819,-58.38388 -4.09889,-4.49492 -13.81433,-12.73705 -19.99108,-16.9595 l -4.12115,-2.81723 1.85194,-1.21486 c 1.81721,-1.19207 1.93962,-1.15607 6.52629,1.91963 4.04615,2.71324 5.18317,3.13449 8.46044,3.13449 4.78101,0 7.76619,-1.00415 12.11084,-4.07381 l 3.44293,-2.43256 3.07517,2.51987 c 1.69134,1.38593 4.25163,3.01143 5.68954,3.61223 4.80694,2.00847 11.73791,1.15693 16.41449,-2.01668 l 2.43488,-1.65235 3.57437,1.65337 c 5.68415,2.62927 11.16092,1.86117 15.42484,-2.16328 1.8234,-1.72101 2.27613,-2.79001 2.32922,-5.49992 0.004,-0.19747 -0.19062,-1.20183 -0.4322,-2.23191 -0.38658,-1.64837 -0.24498,-1.83574 1.18123,-1.5631 0.89125,0.17037 2.96852,-0.15468 4.61617,-0.72234 l 2.99571,-1.03211 0.48956,4.03137 c 1.23092,10.13627 2.0926,11.71466 21.80179,39.93541 6.89567,9.87361 15.40262,22.15279 18.90434,27.28706 l 6.36678,9.33505 -2.32673,1.95385 c -1.27971,1.07461 -6.71253,3.88408 -12.07296,6.24325 -18.16754,7.99571 -42.11122,15.02656 -60.01185,17.62194 -4.34439,0.62989 -8.75431,1.28394 -9.79983,1.45345 -1.70781,0.27688 -1.94911,0.0379 -2.37504,-2.3519 l 0,0 z"
         style="fill:#fff;fill-opacity:1;stroke:#eeeeee;stroke-width:2.1542418;stroke-miterlimit:4;stroke-dasharray:none" />
      <path
         inkscape:connector-curvature="0"
         id="path4700"
         d="m 169.93276,385.4038 c -6.542,-19.2182 -10.7116,-41.30248 -11.52075,-61.01948 l -0.45429,-11.07013 38.11743,-9.13719 c 31.00201,-7.43154 75.73442,-17.91862 86.74825,-20.33731 l 2.2241,-0.48842 0.51084,4.64934 c 1.41115,12.84353 -0.0979,54.06296 -2.10201,57.4149 -0.23214,0.38828 -0.87831,6.07095 -1.43591,12.62815 -0.55762,6.55721 -1.14376,12.05647 -1.30252,12.2206 -0.15877,0.16412 -3.94509,-0.39333 -8.41405,-1.2388 -9.79806,-1.85365 -13.50953,-1.90493 -25.40296,-0.35099 -24.33065,3.17893 -44.09956,8.22323 -68.88147,17.57604 l -6.91061,2.6081 -1.17605,-3.45481 0,0 z"
         style="fill:#fff;fill-opacity:1;stroke:#eeeeee;stroke-width:2.17763829;stroke-miterlimit:4;stroke-dasharray:none" />
      <path
         inkscape:connector-curvature="0"
         id="path4702"
         d="m 239.13162,289.12727 c -0.11064,-0.28462 -16.90072,-6.58187 -37.31128,-13.9939 -20.41056,-7.41202 -37.52615,-13.73354 -38.03466,-14.04781 -1.87352,-1.1579 6.60535,-26.81123 14.17317,-42.88174 4.16092,-8.83586 10.89354,-20.96233 11.63828,-20.96233 0.25595,0 9.1987,4.3529 19.87278,9.67311 10.67407,5.32021 26.83954,12.79324 35.92326,16.60673 9.08372,3.81349 17.53372,7.36826 18.77778,7.89949 1.72279,0.73564 3.64734,3.17182 8.07434,10.2208 3.19683,5.09022 6.46736,10.73555 7.26784,12.54519 1.58428,3.58152 3.93571,14.10402 4.69081,20.99106 l 0.47509,4.33312 -22.67312,5.06689 c -12.47022,2.78678 -22.76364,4.83401 -22.87429,4.54939 l 0,0 z"
         style="fill:#fff;fill-opacity:1;stroke:#eeeeee;stroke-width:2.1542418;stroke-miterlimit:4;stroke-dasharray:none" />
      <path
         inkscape:connector-curvature="0"
         id="path4704"
         d="m 409.05349,438.666 c -1.21897,-0.6746 -3.3126,-2.10052 -4.65251,-3.16871 l -2.43621,-1.94217 1.60602,-2.00728 c 0.8833,-1.104 3.01407,-4.03915 4.73504,-6.52255 l 3.12904,-4.51529 3.7089,4.05813 c 3.81526,4.17451 7.40331,9.0916 8.16404,11.18807 0.32783,0.90346 -0.40815,1.55025 -3.06407,2.6928 -4.19498,1.80463 -8.18177,1.88194 -11.19025,0.217 l 0,0 z"
         style="fill:#fff;fill-opacity:1;stroke:#eeeeee;stroke-width:2.1542418;stroke-miterlimit:4;stroke-dasharray:none" />
      <path
         inkscape:connector-curvature="0"
         id="path4706"
         d="m 430.94225,436.29432 c -2.65107,-1.43876 -4.53803,-3.08614 -5.53007,-4.82791 -0.82822,-1.45415 -3.78462,-5.22593 -6.56976,-8.38173 -2.78514,-3.15579 -4.98209,-5.94329 -4.8821,-6.19445 0.46022,-1.15597 13.14884,-19.99299 13.46629,-19.99152 0.19748,9.1e-4 4.21453,7.92184 8.92679,17.60206 9.50399,19.52367 9.61688,20.06519 4.72795,22.67841 -3.43547,1.83631 -5.44884,1.6606 -10.1391,-0.88486 l 0,0 z"
         style="fill:#fff;fill-opacity:1;stroke:#eeeeee;stroke-width:2.1542418;stroke-miterlimit:4;stroke-dasharray:none" />
      <path
         inkscape:connector-curvature="0"
         id="path4708"
         d="m 447.34056,424.18813 c -2.46263,-1.28251 -6.74962,-8.77093 -13.86097,-24.21199 l -3.36381,-7.30394 5.58003,-8.27313 c 3.06901,-4.55022 6.62422,-9.28522 7.90048,-10.52221 l 2.32046,-2.24908 0.45628,2.43218 c 0.25095,1.33771 1.19525,4.33998 2.09844,6.67172 l 1.64215,4.23954 -2.66478,5.14957 c -3.43631,6.64049 -4.13211,11.68564 -2.46236,17.85419 1.23956,4.5793 5.38859,13.41081 7.30628,15.55192 0.93347,1.04223 0.84861,1.20475 -0.79295,1.51855 -1.01106,0.19328 -2.88272,-0.19252 -4.15925,-0.85732 z"
         style="fill:#fff;fill-opacity:1;stroke:#eeeeee;stroke-width:2.1542418;stroke-miterlimit:4;stroke-dasharray:none" />
      <path
         inkscape:connector-curvature="0"
         id="path4710"
         d="m 451.19922,377.15884 c -0.83166,-2.22281 -1.51211,-5.2492 -1.51211,-6.72531 0,-2.39523 0.58835,-3.26105 5.4711,-8.05147 l 5.47109,-5.36763 -0.4084,5.27352 c -0.40273,5.20026 -2.32574,10.45913 -6.0385,16.51351 l -1.47107,2.39886 -1.51211,-4.04148 z"
         style="fill:#fff;fill-opacity:1;stroke:#eeeeee;stroke-width:2.1542418;stroke-miterlimit:4;stroke-dasharray:none" />
    </g>
    <g
       id="g4982"
       transform="translate(-529.12839,695.48315)">
      <g
         transform="translate(-294.62783,-9.4280904)"
         id="g4533">
        <g
           id="g4658">
          <path
             sodipodi:type="arc"
             style="fill:#6937e2;stroke:#ffff99;stroke-width:6.25749493;stroke-miterlimit:4;stroke-dasharray:none"
             id="path3247"
             sodipodi:cx="-604.2077"
             sodipodi:cy="933.82239"
             sodipodi:rx="505.23273"
             sodipodi:ry="463.80133"
             d="m -98.974976,933.82239 c 0,256.15041 -226.200394,463.80131 -505.232724,463.80131 -279.03233,0 -505.2327,-207.6509 -505.2327,-463.80131 0,-256.1504 226.20037,-463.80133 505.2327,-463.80133 279.03233,0 505.232724,207.65093 505.232724,463.80133 z"
             transform="matrix(0.46839574,0,0,0.4907141,969.51794,-137.80426)" />
          <path
             style="fill:none;stroke:#ffff99;stroke-width:3;stroke-linecap:butt;stroke-linejoin:miter;stroke-miterlimit:4;stroke-opacity:1;stroke-dasharray:none"
             d="m 510.54214,167.67984 c 0,0 20.49122,25.6327 29.91942,39.04902 12.07401,17.18129 34.06689,52.99293 34.06689,52.99293 7.63759,11.8807 10.92414,63.99357 6.04797,91.91471"
             id="path3076"
             inkscape:connector-curvature="0"
             sodipodi:nodetypes="casc" />
          <path
             style="fill:none;stroke:#ffff99;stroke-width:3;stroke-linecap:butt;stroke-linejoin:miter;stroke-miterlimit:4;stroke-opacity:1;stroke-dasharray:none"
             d="m 573.34704,121.04709 c 0,0 48.98668,63.03943 77.83189,90.41328 7.66581,7.27479 25.07701,19.3992 25.07701,19.3992"
             id="path3078"
             inkscape:connector-curvature="0"
             sodipodi:nodetypes="cac" />
          <path
             style="fill:none;stroke:#ffff99;stroke-width:3;stroke-linecap:butt;stroke-linejoin:miter;stroke-miterlimit:4;stroke-opacity:1;stroke-dasharray:none"
             d="m 629.62089,292.29931 c 0,0 18.90559,-34.67785 32.44052,-49.13781 13.53493,-14.45997 48.26142,-35.48634 48.26142,-35.48634 0,0 34.57442,-34.89934 50.62717,-53.46608 10.36394,-11.98702 29.43426,-37.32991 29.43426,-37.32991 0,0 21.62774,11.06701 40.88605,24.8119 20.6614,14.7463 38.25081,32.88103 35.28455,36.10846 -5.66013,6.15851 -24.01525,25.95874 -35.10534,39.33865 -11.09009,13.37991 -40.02542,45.84108 -41.6373,51.57348 -1.61188,5.7324 4.47867,11.87019 5.85029,18.76653 4.23269,21.28145 6.59086,56.42431 -0.25673,67.01509"
             id="path3080"
             inkscape:connector-curvature="0"
             sodipodi:nodetypes="czcacsszzsc" />
          <path
             style="fill:none;stroke:#ffff99;stroke-width:3;stroke-linecap:butt;stroke-linejoin:miter;stroke-miterlimit:4;stroke-opacity:1;stroke-dasharray:none"
             d="m 629.22775,295.7057 c -0.36178,3.15446 -1.17274,7.11564 -2.51571,11.95495 0,0 -6.3735,11.76059 -11.64839,16.07613 -5.27489,4.31554 -6.49162,18.57484 -4.65263,21.16776 7.27101,-0.94383 60.95073,-84.40376 62.56854,-87.15094 1.61781,-2.74718 6.95135,-8.3211 11.31757,-5.84247 7.00301,3.97549 3.8886,24.02313 -12.37056,46.42584 -16.25915,22.40271 -27.00421,43.66136 -27.00421,43.66136 l 3.31079,1.65003 c 0,0 54.98465,-70.40007 59.54537,-75.19094 4.56074,-4.79087 9.8878,-7.84228 9.8878,-7.84228 0,0 19.53467,-1.24948 9.47188,16.36076 -10.06278,17.61024 -53.62755,83.81173 -53.62755,83.81173 0,0 20.11041,-20.63714 28.81373,-32.07418 8.36856,-10.99712 15.84217,-27.6542 22.33963,-34.92374 6.49745,-7.26954 18.12412,-1.65688 16.7268,10.06779 -1.39731,11.72468 -52.26306,87.47026 -54.64145,84.49731 1.79379,8.22849 41.18941,-39.25627 45.46886,-41.69674 4.27945,-2.44047 11.17954,-0.65083 11.80857,9.29335 0.62903,9.94418 -26.84542,39.27527 -26.84542,39.27527 l -30.98925,30.57116 -20.28771,17.3261 -23.2422,16.74079 -44.01954,71.04068 c -0.87361,1.31041 -29.92372,-12.36533 -41.68473,-20.2845 -30.26441,-20.37829 -34.35426,-21.74958 -30.14943,-27.70309 20.58002,-29.13873 40.21655,-52.57718 44.77775,-64.92161 4.5612,-12.34443 7.67369,-62.01353 7.67369,-62.01353 0,0 6.72172,-27.07986 12.07294,-38.89877 5.35122,-11.81891 15.43517,-14.28148 21.50983,-19.36121 9.68014,-13.78012 18.10423,-17.00706 16.38503,-2.01701"
             id="path3082"
             inkscape:connector-curvature="0"
             sodipodi:nodetypes="cczczszcczczcazzczzcccccsszczcc" />
          <path
             style="fill:none;stroke:#ffff99;stroke-width:3;stroke-linecap:butt;stroke-linejoin:miter;stroke-miterlimit:4;stroke-opacity:1;stroke-dasharray:none"
             d="m 742.12136,376.96586 c -0.56966,6.49767 2.87993,11.97249 4.78592,17.81732"
             id="path3084"
             inkscape:connector-curvature="0"
             sodipodi:nodetypes="cc" />
          <path
             style="fill:none;stroke:#ffff99;stroke-width:3;stroke-linecap:butt;stroke-linejoin:miter;stroke-miterlimit:4;stroke-opacity:1;stroke-dasharray:none"
             d="m 657.83982,448.07274 c 0,0 22.37824,14.17361 29.57693,24.85041 14.4279,21.39891 23.94554,73.62951 23.94554,73.62951"
             id="path3092"
             inkscape:connector-curvature="0"
             sodipodi:nodetypes="cac" />
          <path
             style="fill:none;stroke:#ffff99;stroke-width:3;stroke-linecap:butt;stroke-linejoin:miter;stroke-miterlimit:4;stroke-opacity:1;stroke-dasharray:none"
             d="m 720.39665,550.34192 c -1.46979,-3.47654 86.87589,-23.40339 79.73656,-34.70837 -11.02593,-17.45933 -41.29253,-57.87075 -44.07773,-65.10398 -3.69365,-9.59251 -2.7717,-19.28861 -1.52008,-17.88074 0,0 27.43146,-2.41191 113.0253,34.77689 11.00651,-10.58334 43.03609,-57.74328 35.27782,-60.92728 -95.25643,-39.0934 -106.59221,-52.99161 -106.59221,-52.99161 -7.68811,11.57722 -12.26593,42.7412 -14.72444,47.33738 -2.45851,4.59622 -11.58867,7.20889 -16.79314,16.19581 -7.59304,13.11143 -11.95472,20.12935 -14.99661,16.60074 -3.04189,-3.52861 -9.48307,-14.56729 -9.22166,-22.74389 0.32732,-10.23815 8.04987,-16.52617 13.34227,-27.68263 5.2924,-11.15645 2.36828,-20.53653 2.36828,-20.53653 l -21.76748,21.48283 -35.95948,53.46608 c 0,0 -7.11094,8.73687 -12.01939,11.12824 -3.10167,1.51112 -6.84604,2.37403 -10.21872,1.64683 -3.76852,-0.81255 -9.6453,-6.38167 -9.6453,-6.38167"
             id="path3094"
             inkscape:connector-curvature="0"
             sodipodi:nodetypes="cssccsczszazcccaac" />
          <path
             style="fill:none;stroke:#ffff99;stroke-width:3;stroke-linecap:butt;stroke-linejoin:miter;stroke-miterlimit:4;stroke-opacity:1;stroke-dasharray:none"
             d="m 789.79182,270.33709 c 0,0 12.28117,18.5348 40.23825,23.92473 27.95707,5.38994 90.84501,9.46303 90.84501,9.46303"
             id="path3096"
             inkscape:connector-curvature="0"
             sodipodi:nodetypes="czc" />
          <path
             style="fill:none;stroke:#ffff99;stroke-width:3;stroke-linecap:butt;stroke-linejoin:miter;stroke-miterlimit:4;stroke-opacity:1;stroke-dasharray:none"
             d="M 911.40244,392.69008 797.08685,352.52038"
             id="path3098"
             inkscape:connector-curvature="0"
             sodipodi:nodetypes="cc" />
          <path
             style="fill:none;stroke:#ffff99;stroke-width:3;stroke-linecap:butt;stroke-linejoin:miter;stroke-miterlimit:4;stroke-opacity:1;stroke-dasharray:none"
             d="m 692.81623,442.83129 0.94631,0"
             id="path3100"
             inkscape:connector-curvature="0" />
          <path
             style="fill:none;stroke:#ffff99;stroke-width:3;stroke-linecap:butt;stroke-linejoin:miter;stroke-miterlimit:4;stroke-opacity:1;stroke-dasharray:none"
             d="m 693.28939,442.35812 c 0,0 6.51312,6.43567 10.64438,8.12704 2.13354,0.87347 6.86221,0.86283 6.86221,0.86283 0,0 9.91402,-2.46985 9.46302,-5.20467 -1.18123,-7.1628 -14.96147,-19.09139 -14.61252,-19.135"
             id="path3102"
             inkscape:connector-curvature="0"
             sodipodi:nodetypes="cscsc" />
          <path
             style="fill:none;stroke:#ffff99;stroke-width:3;stroke-linecap:butt;stroke-linejoin:miter;stroke-miterlimit:4;stroke-opacity:1;stroke-dasharray:none"
             d="m 722.24354,401.74067 16.14903,33.25605"
             id="path3104"
             inkscape:connector-curvature="0"
             sodipodi:nodetypes="cc" />
          <path
             style="fill:none;stroke:#ffff99;stroke-width:3;stroke-linecap:butt;stroke-linejoin:miter;stroke-miterlimit:4;stroke-opacity:1;stroke-dasharray:none"
             d="m 449.40066,320.61856 c 0,0 56.79516,-13.33369 85.23713,-19.80751 15.64791,-3.5617 46.99162,-10.47248 46.99162,-10.47248"
             id="path3108"
             inkscape:connector-curvature="0"
             sodipodi:nodetypes="cac" />
          <path
             style="fill:none;stroke:#ffff99;stroke-width:3;stroke-linecap:butt;stroke-linejoin:miter;stroke-miterlimit:4;stroke-opacity:1;stroke-dasharray:none"
             d="m 463.85645,397.8027 c 31.92387,-12.09382 56.05857,-18.66077 91.35539,-21.64612 7.62912,0.93483 22.73165,3.86899 22.73165,3.86899"
             id="path3114"
             inkscape:connector-curvature="0"
             sodipodi:nodetypes="ccc" />
          <path
             style="fill:none;stroke:#ffff99;stroke-width:3;stroke-linecap:butt;stroke-linejoin:miter;stroke-miterlimit:4;stroke-opacity:1;stroke-dasharray:none"
             d="m 482.98862,203.58319 c 57.49666,29.22839 28.31857,14.42661 79.22779,36.72424"
             id="path3116"
             inkscape:connector-curvature="0"
             sodipodi:nodetypes="cc" />
          <path
             style="fill:none;stroke:#ffff99;stroke-width:3;stroke-linecap:butt;stroke-linejoin:miter;stroke-miterlimit:4;stroke-opacity:1;stroke-dasharray:none"
             d="M 533.33976,300.0233 454.58199,271.38904"
             id="path3120"
             inkscape:connector-curvature="0"
             sodipodi:nodetypes="cc" />
          <path
             style="fill:none;stroke:#ffff99;stroke-width:3;stroke-linecap:butt;stroke-linejoin:miter;stroke-miterlimit:4;stroke-opacity:1;stroke-dasharray:none"
             d="m 738.15965,434.56533 c 0,0 4.21691,6.31374 3.06559,9.40281 -1.31692,3.53334 -5.92629,5.61213 -9.69038,5.83658 -4.24966,0.25341 -11.64595,-5.24275 -11.64595,-5.24275"
             id="path3543"
             inkscape:connector-curvature="0"
             sodipodi:nodetypes="caac" />
          <path
             style="fill:none;stroke:#ffff99;stroke-width:3;stroke-linecap:butt;stroke-linejoin:miter;stroke-miterlimit:4;stroke-opacity:1;stroke-dasharray:none"
             d="m 720.09227,446.95084 0,-2.38615"
             id="path3545"
             inkscape:connector-curvature="0" />
          <path
             style="fill:none;stroke:#ffff99;stroke-width:3;stroke-linecap:butt;stroke-linejoin:miter;stroke-miterlimit:4;stroke-opacity:1;stroke-dasharray:none"
             d="m 736.98231,431.90301 c 6.70108,7.28173 9.18488,4.4974 15.0072,2.50119"
             id="path3560"
             inkscape:connector-curvature="0" />
          <path
             style="fill:none;stroke:#ffff99;stroke-width:3;stroke-linecap:butt;stroke-linejoin:miter;stroke-miterlimit:4;stroke-opacity:1;stroke-dasharray:none"
             d="m 631.15362,189.19295 c 15.32536,-34.9562 11.58995,-77.21911 16.17459,-93.72379"
             id="path3597"
             inkscape:connector-curvature="0"
             sodipodi:nodetypes="cc" />
          <path
             style="fill:none;stroke:#ffff99;stroke-width:3;stroke-linecap:butt;stroke-linejoin:miter;stroke-miterlimit:4;stroke-opacity:1;stroke-dasharray:none"
             d="m 716.92958,200.79007 c -7.53207,-23.787 -6.32573,-83.9302 4.05385,-105.75635"
             id="path3599"
             inkscape:connector-curvature="0"
             sodipodi:nodetypes="cc" />
        </g>
      </g>
      <g
         transform="translate(-294.62783,-9.4280904)"
         id="g4843">
        <path
           sodipodi:type="arc"
           style="fill:#6937e2;stroke:#ffff99;stroke-width:6.25749493;stroke-miterlimit:4;stroke-dasharray:none"
           id="path4845"
           sodipodi:cx="-604.2077"
           sodipodi:cy="933.82239"
           sodipodi:rx="505.23273"
           sodipodi:ry="463.80133"
           d="m -98.974976,933.82239 c 0,256.15041 -226.200394,463.80131 -505.232724,463.80131 -279.03233,0 -505.2327,-207.6509 -505.2327,-463.80131 0,-256.1504 226.20037,-463.80133 505.2327,-463.80133 279.03233,0 505.232724,207.65093 505.232724,463.80133 z"
           transform="matrix(0.46839574,0,0,0.4907141,969.51794,-137.80426)" />
        <path
           style="fill:none;stroke:#ffff99;stroke-width:3;stroke-linecap:butt;stroke-linejoin:miter;stroke-miterlimit:4;stroke-opacity:1;stroke-dasharray:none"
           d="m 510.54214,167.67984 c 0,0 20.49122,25.6327 29.91942,39.04902 12.07401,17.18129 34.06689,52.99293 34.06689,52.99293 7.63759,11.8807 10.92414,63.99357 6.04797,91.91471"
           id="path4847"
           inkscape:connector-curvature="0"
           sodipodi:nodetypes="casc" />
        <path
           style="fill:none;stroke:#ffff99;stroke-width:3;stroke-linecap:butt;stroke-linejoin:miter;stroke-miterlimit:4;stroke-opacity:1;stroke-dasharray:none"
           d="m 573.34704,121.04709 c 0,0 48.98668,63.03943 77.83189,90.41328 7.66581,7.27479 25.07701,19.3992 25.07701,19.3992"
           id="path4849"
           inkscape:connector-curvature="0"
           sodipodi:nodetypes="cac" />
        <path
           style="fill:none;stroke:#ffff99;stroke-width:3;stroke-linecap:butt;stroke-linejoin:miter;stroke-miterlimit:4;stroke-opacity:1;stroke-dasharray:none"
           d="m 629.62089,292.29931 c 0,0 18.90559,-34.67785 32.44052,-49.13781 13.53493,-14.45997 48.26142,-35.48634 48.26142,-35.48634 0,0 34.57442,-34.89934 50.62717,-53.46608 10.36394,-11.98702 29.43426,-37.32991 29.43426,-37.32991 0,0 21.62774,11.06701 40.88605,24.8119 20.6614,14.7463 38.25081,32.88103 35.28455,36.10846 -5.66013,6.15851 -24.01525,25.95874 -35.10534,39.33865 -11.09009,13.37991 -40.02542,45.84108 -41.6373,51.57348 -1.61188,5.7324 4.47867,11.87019 5.85029,18.76653 4.23269,21.28145 6.59086,56.42431 -0.25673,67.01509"
           id="path4851"
           inkscape:connector-curvature="0"
           sodipodi:nodetypes="czcacsszzsc" />
        <path
           style="fill:none;stroke:#ffff99;stroke-width:3;stroke-linecap:butt;stroke-linejoin:miter;stroke-miterlimit:4;stroke-opacity:1;stroke-dasharray:none"
           d="m 629.22775,295.7057 c -0.36178,3.15446 -1.17274,7.11564 -2.51571,11.95495 0,0 -6.3735,11.76059 -11.64839,16.07613 -5.27489,4.31554 -6.49162,18.57484 -4.65263,21.16776 7.27101,-0.94383 60.95073,-84.40376 62.56854,-87.15094 1.61781,-2.74718 6.95135,-8.3211 11.31757,-5.84247 7.00301,3.97549 3.8886,24.02313 -12.37056,46.42584 -16.25915,22.40271 -27.00421,43.66136 -27.00421,43.66136 l 3.31079,1.65003 c 0,0 54.98465,-70.40007 59.54537,-75.19094 4.56074,-4.79087 9.8878,-7.84228 9.8878,-7.84228 0,0 19.53467,-1.24948 9.47188,16.36076 -10.06278,17.61024 -53.62755,83.81173 -53.62755,83.81173 0,0 20.11041,-20.63714 28.81373,-32.07418 8.36856,-10.99712 15.84217,-27.6542 22.33963,-34.92374 6.49745,-7.26954 18.12412,-1.65688 16.7268,10.06779 -1.39731,11.72468 -52.26306,87.47026 -54.64145,84.49731 1.79379,8.22849 41.18941,-39.25627 45.46886,-41.69674 4.27945,-2.44047 11.17954,-0.65083 11.80857,9.29335 0.62903,9.94418 -26.84542,39.27527 -26.84542,39.27527 l -30.98925,30.57116 -20.28771,17.3261 -23.2422,16.74079 -44.01954,71.04068 c -0.87361,1.31041 -29.92372,-12.36533 -41.68473,-20.2845 -30.26441,-20.37829 -34.35426,-21.74958 -30.14943,-27.70309 20.58002,-29.13873 40.21655,-52.57718 44.77775,-64.92161 4.5612,-12.34443 7.67369,-62.01353 7.67369,-62.01353 0,0 6.72172,-27.07986 12.07294,-38.89877 5.35122,-11.81891 15.43517,-14.28148 21.50983,-19.36121 9.68014,-13.78012 18.10423,-17.00706 16.38503,-2.01701"
           id="path4853"
           inkscape:connector-curvature="0"
           sodipodi:nodetypes="cczczszcczczcazzczzcccccsszczcc" />
        <path
           style="fill:none;stroke:#ffff99;stroke-width:3;stroke-linecap:butt;stroke-linejoin:miter;stroke-miterlimit:4;stroke-opacity:1;stroke-dasharray:none"
           d="m 742.12136,376.96586 c -0.56966,6.49767 2.87993,11.97249 4.78592,17.81732"
           id="path4855"
           inkscape:connector-curvature="0"
           sodipodi:nodetypes="cc" />
        <path
           style="fill:none;stroke:#ffff99;stroke-width:3;stroke-linecap:butt;stroke-linejoin:miter;stroke-miterlimit:4;stroke-opacity:1;stroke-dasharray:none"
           d="m 657.83982,448.07274 c 0,0 22.37824,14.17361 29.57693,24.85041 14.4279,21.39891 23.94554,73.62951 23.94554,73.62951"
           id="path4857"
           inkscape:connector-curvature="0"
           sodipodi:nodetypes="cac" />
        <path
           style="fill:none;stroke:#ffff99;stroke-width:3;stroke-linecap:butt;stroke-linejoin:miter;stroke-miterlimit:4;stroke-opacity:1;stroke-dasharray:none"
           d="m 720.39665,550.34192 c -1.46979,-3.47654 86.87589,-23.40339 79.73656,-34.70837 -11.02593,-17.45933 -41.29253,-57.87075 -44.07773,-65.10398 -3.69365,-9.59251 -2.7717,-19.28861 -1.52008,-17.88074 0,0 27.43146,-2.41191 113.0253,34.77689 11.00651,-10.58334 43.03609,-57.74328 35.27782,-60.92728 -95.25643,-39.0934 -106.59221,-52.99161 -106.59221,-52.99161 -7.68811,11.57722 -12.26593,42.7412 -14.72444,47.33738 -2.45851,4.59622 -11.58867,7.20889 -16.79314,16.19581 -7.59304,13.11143 -11.95472,20.12935 -14.99661,16.60074 -3.04189,-3.52861 -9.48307,-14.56729 -9.22166,-22.74389 0.32732,-10.23815 8.04987,-16.52617 13.34227,-27.68263 5.2924,-11.15645 2.36828,-20.53653 2.36828,-20.53653 l -21.76748,21.48283 -35.95948,53.46608 c 0,0 -7.11094,8.73687 -12.01939,11.12824 -3.10167,1.51112 -6.84604,2.37403 -10.21872,1.64683 -3.76852,-0.81255 -9.6453,-6.38167 -9.6453,-6.38167"
           id="path4859"
           inkscape:connector-curvature="0"
           sodipodi:nodetypes="cssccsczszazcccaac" />
        <path
           style="fill:none;stroke:#ffff99;stroke-width:3;stroke-linecap:butt;stroke-linejoin:miter;stroke-miterlimit:4;stroke-opacity:1;stroke-dasharray:none"
           d="m 789.79182,270.33709 c 0,0 12.28117,18.5348 40.23825,23.92473 27.95707,5.38994 90.84501,9.46303 90.84501,9.46303"
           id="path4861"
           inkscape:connector-curvature="0"
           sodipodi:nodetypes="czc" />
        <path
           style="fill:none;stroke:#ffff99;stroke-width:3;stroke-linecap:butt;stroke-linejoin:miter;stroke-miterlimit:4;stroke-opacity:1;stroke-dasharray:none"
           d="M 911.40244,392.69008 797.08685,352.52038"
           id="path4863"
           inkscape:connector-curvature="0"
           sodipodi:nodetypes="cc" />
        <path
           style="fill:none;stroke:#ffff99;stroke-width:3;stroke-linecap:butt;stroke-linejoin:miter;stroke-miterlimit:4;stroke-opacity:1;stroke-dasharray:none"
           d="m 692.81623,442.83129 0.94631,0"
           id="path4865"
           inkscape:connector-curvature="0" />
        <path
           style="fill:none;stroke:#ffff99;stroke-width:3;stroke-linecap:butt;stroke-linejoin:miter;stroke-miterlimit:4;stroke-opacity:1;stroke-dasharray:none"
           d="m 693.28939,442.35812 c 0,0 6.51312,6.43567 10.64438,8.12704 2.13354,0.87347 6.86221,0.86283 6.86221,0.86283 0,0 9.91402,-2.46985 9.46302,-5.20467 -1.18123,-7.1628 -14.96147,-19.09139 -14.61252,-19.135"
           id="path4867"
           inkscape:connector-curvature="0"
           sodipodi:nodetypes="cscsc" />
        <path
           style="fill:none;stroke:#ffff99;stroke-width:3;stroke-linecap:butt;stroke-linejoin:miter;stroke-miterlimit:4;stroke-opacity:1;stroke-dasharray:none"
           d="m 722.24354,401.74067 16.14903,33.25605"
           id="path4869"
           inkscape:connector-curvature="0"
           sodipodi:nodetypes="cc" />
        <path
           style="fill:none;stroke:#ffff99;stroke-width:3;stroke-linecap:butt;stroke-linejoin:miter;stroke-miterlimit:4;stroke-opacity:1;stroke-dasharray:none"
           d="m 449.40066,320.61856 c 0,0 56.79516,-13.33369 85.23713,-19.80751 15.64791,-3.5617 46.99162,-10.47248 46.99162,-10.47248"
           id="path4871"
           inkscape:connector-curvature="0"
           sodipodi:nodetypes="cac" />
        <path
           style="fill:none;stroke:#ffff99;stroke-width:3;stroke-linecap:butt;stroke-linejoin:miter;stroke-miterlimit:4;stroke-opacity:1;stroke-dasharray:none"
           d="m 463.85645,397.8027 c 31.92387,-12.09382 56.05857,-18.66077 91.35539,-21.64612 7.62912,0.93483 22.73165,3.86899 22.73165,3.86899"
           id="path4873"
           inkscape:connector-curvature="0"
           sodipodi:nodetypes="ccc" />
        <path
           style="fill:none;stroke:#ffff99;stroke-width:3;stroke-linecap:butt;stroke-linejoin:miter;stroke-miterlimit:4;stroke-opacity:1;stroke-dasharray:none"
           d="m 482.98862,203.58319 c 57.49666,29.22839 28.31857,14.42661 79.22779,36.72424"
           id="path4875"
           inkscape:connector-curvature="0"
           sodipodi:nodetypes="cc" />
        <path
           style="fill:none;stroke:#ffff99;stroke-width:3;stroke-linecap:butt;stroke-linejoin:miter;stroke-miterlimit:4;stroke-opacity:1;stroke-dasharray:none"
           d="M 533.33976,300.0233 454.58199,271.38904"
           id="path4877"
           inkscape:connector-curvature="0"
           sodipodi:nodetypes="cc" />
        <path
           style="fill:none;stroke:#ffff99;stroke-width:3;stroke-linecap:butt;stroke-linejoin:miter;stroke-miterlimit:4;stroke-opacity:1;stroke-dasharray:none"
           d="m 738.15965,434.56533 c 0,0 4.21691,6.31374 3.06559,9.40281 -1.31692,3.53334 -5.92629,5.61213 -9.69038,5.83658 -4.24966,0.25341 -11.64595,-5.24275 -11.64595,-5.24275"
           id="path4879"
           inkscape:connector-curvature="0"
           sodipodi:nodetypes="caac" />
        <path
           style="fill:none;stroke:#ffff99;stroke-width:3;stroke-linecap:butt;stroke-linejoin:miter;stroke-miterlimit:4;stroke-opacity:1;stroke-dasharray:none"
           d="m 720.09227,446.95084 0,-2.38615"
           id="path4881"
           inkscape:connector-curvature="0" />
        <path
           style="fill:none;stroke:#ffff99;stroke-width:3;stroke-linecap:butt;stroke-linejoin:miter;stroke-miterlimit:4;stroke-opacity:1;stroke-dasharray:none"
           d="m 736.98231,431.90301 c 6.70108,7.28173 9.18488,4.4974 15.0072,2.50119"
           id="path4883"
           inkscape:connector-curvature="0" />
        <path
           style="fill:none;stroke:#ffff99;stroke-width:3;stroke-linecap:butt;stroke-linejoin:miter;stroke-miterlimit:4;stroke-opacity:1;stroke-dasharray:none"
           d="m 631.15362,189.19295 c 15.32536,-34.9562 11.58995,-77.21911 16.17459,-93.72379"
           id="path4885"
           inkscape:connector-curvature="0"
           sodipodi:nodetypes="cc" />
        <path
           style="fill:none;stroke:#ffff99;stroke-width:3;stroke-linecap:butt;stroke-linejoin:miter;stroke-miterlimit:4;stroke-opacity:1;stroke-dasharray:none"
           d="m 716.92958,200.79007 c -7.53207,-23.787 -6.32573,-83.9302 4.05385,-105.75635"
           id="path4887"
           inkscape:connector-curvature="0"
           sodipodi:nodetypes="cc" />
      </g>
      <path
         sodipodi:type="arc"
         style="fill:#6937e2;stroke:#ffff99;stroke-width:6.25749493;stroke-miterlimit:4;stroke-dasharray:none"
         id="path4914"
         sodipodi:cx="-604.2077"
         sodipodi:cy="933.82239"
         sodipodi:rx="505.23273"
         sodipodi:ry="463.80133"
         d="m -98.974976,933.82239 c 0,256.15041 -226.200394,463.80131 -505.232724,463.80131 -279.03233,0 -505.2327,-207.6509 -505.2327,-463.80131 0,-256.1504 226.20037,-463.80133 505.2327,-463.80133 279.03233,0 505.232724,207.65093 505.232724,463.80133 z"
         transform="matrix(0.46839574,0,0,0.4907141,674.89011,-147.23235)" />
      <path
         style="fill:none;stroke:#ffff99;stroke-width:3;stroke-linecap:butt;stroke-linejoin:miter;stroke-miterlimit:4;stroke-opacity:1;stroke-dasharray:none"
         d="m 215.91431,158.25175 c 0,0 20.49122,25.6327 29.91942,39.04902 12.07401,17.18129 34.06689,52.99293 34.06689,52.99293 7.63759,11.8807 10.92414,63.99357 6.04797,91.91471"
         id="path4916"
         inkscape:connector-curvature="0"
         sodipodi:nodetypes="casc" />
      <path
         style="fill:none;stroke:#ffff99;stroke-width:3;stroke-linecap:butt;stroke-linejoin:miter;stroke-miterlimit:4;stroke-opacity:1;stroke-dasharray:none"
         d="m 278.71921,111.619 c 0,0 48.98668,63.03943 77.83189,90.41328 7.66581,7.27479 25.07701,19.3992 25.07701,19.3992"
         id="path4918"
         inkscape:connector-curvature="0"
         sodipodi:nodetypes="cac" />
      <path
         style="fill:none;stroke:#ffff99;stroke-width:3;stroke-linecap:butt;stroke-linejoin:miter;stroke-miterlimit:4;stroke-opacity:1;stroke-dasharray:none"
         d="m 334.99306,282.87122 c 0,0 18.90559,-34.67785 32.44052,-49.13781 13.53493,-14.45997 48.26142,-35.48634 48.26142,-35.48634 0,0 34.57442,-34.89934 50.62717,-53.46608 10.36394,-11.98702 29.43426,-37.32991 29.43426,-37.32991 0,0 21.62774,11.06701 40.88605,24.8119 20.6614,14.7463 38.25081,32.88103 35.28455,36.10846 -5.66013,6.15851 -24.01525,25.95874 -35.10534,39.33865 -11.09009,13.37991 -40.02542,45.84108 -41.6373,51.57348 -1.61188,5.7324 4.47867,11.87019 5.85029,18.76653 4.23269,21.28145 6.59086,56.42431 -0.25673,67.01509"
         id="path4920"
         inkscape:connector-curvature="0"
         sodipodi:nodetypes="czcacsszzsc" />
      <path
         style="fill:none;stroke:#ffff99;stroke-width:3;stroke-linecap:butt;stroke-linejoin:miter;stroke-miterlimit:4;stroke-opacity:1;stroke-dasharray:none"
         d="m 334.59992,286.27761 c -0.36178,3.15446 -1.17274,7.11564 -2.51571,11.95495 0,0 -6.3735,11.76059 -11.64839,16.07613 -5.27489,4.31554 -6.49162,18.57484 -4.65263,21.16776 7.27101,-0.94383 60.95073,-84.40376 62.56854,-87.15094 1.61781,-2.74718 6.95135,-8.3211 11.31757,-5.84247 7.00301,3.97549 3.8886,24.02313 -12.37056,46.42584 -16.25915,22.40271 -27.00421,43.66136 -27.00421,43.66136 l 3.31079,1.65003 c 0,0 54.98465,-70.40007 59.54537,-75.19094 4.56074,-4.79087 9.8878,-7.84228 9.8878,-7.84228 0,0 19.53467,-1.24948 9.47188,16.36076 -10.06278,17.61024 -53.62755,83.81173 -53.62755,83.81173 0,0 20.11041,-20.63714 28.81373,-32.07418 8.36856,-10.99712 15.84217,-27.6542 22.33963,-34.92374 6.49745,-7.26954 18.12412,-1.65688 16.7268,10.06779 -1.39731,11.72468 -52.26306,87.47026 -54.64145,84.49731 1.79379,8.22849 41.18941,-39.25627 45.46886,-41.69674 4.27945,-2.44047 11.17954,-0.65083 11.80857,9.29335 0.62903,9.94418 -26.84542,39.27527 -26.84542,39.27527 l -30.98925,30.57116 -20.28771,17.3261 -23.2422,16.74079 -44.01954,71.04068 c -0.87361,1.31041 -29.92372,-12.36533 -41.68473,-20.2845 -30.26441,-20.37829 -34.35426,-21.74958 -30.14943,-27.70309 20.58002,-29.13873 40.21655,-52.57718 44.77775,-64.92161 4.5612,-12.34443 7.67369,-62.01353 7.67369,-62.01353 0,0 6.72172,-27.07986 12.07294,-38.89877 5.35122,-11.81891 15.43517,-14.28148 21.50983,-19.36121 9.68014,-13.78012 18.10423,-17.00706 16.38503,-2.01701"
         id="path4922"
         inkscape:connector-curvature="0"
         sodipodi:nodetypes="cczczszcczczcazzczzcccccsszczcc" />
      <path
         style="fill:none;stroke:#ffff99;stroke-width:3;stroke-linecap:butt;stroke-linejoin:miter;stroke-miterlimit:4;stroke-opacity:1;stroke-dasharray:none"
         d="m 447.49353,367.53777 c -0.56966,6.49767 2.87993,11.97249 4.78592,17.81732"
         id="path4924"
         inkscape:connector-curvature="0"
         sodipodi:nodetypes="cc" />
      <path
         style="fill:none;stroke:#ffff99;stroke-width:3;stroke-linecap:butt;stroke-linejoin:miter;stroke-miterlimit:4;stroke-opacity:1;stroke-dasharray:none"
         d="m 363.21199,438.64465 c 0,0 22.37824,14.17361 29.57693,24.85041 14.4279,21.39891 23.94554,73.62951 23.94554,73.62951"
         id="path4926"
         inkscape:connector-curvature="0"
         sodipodi:nodetypes="cac" />
      <path
         style="fill:none;stroke:#ffff99;stroke-width:3;stroke-linecap:butt;stroke-linejoin:miter;stroke-miterlimit:4;stroke-opacity:1;stroke-dasharray:none"
         d="m 425.76882,540.91383 c -1.46979,-3.47654 86.87589,-23.40339 79.73656,-34.70837 -11.02593,-17.45933 -41.29253,-57.87075 -44.07773,-65.10398 -3.69365,-9.59251 -2.7717,-19.28861 -1.52008,-17.88074 0,0 27.43146,-2.41191 113.0253,34.77689 11.00651,-10.58334 43.03609,-57.74328 35.27782,-60.92728 -95.25643,-39.0934 -106.59221,-52.99161 -106.59221,-52.99161 -7.68811,11.57722 -12.26593,42.7412 -14.72444,47.33738 -2.45851,4.59622 -11.58867,7.20889 -16.79314,16.19581 -7.59304,13.11143 -11.95472,20.12935 -14.99661,16.60074 -3.04189,-3.52861 -9.48307,-14.56729 -9.22166,-22.74389 0.32732,-10.23815 8.04987,-16.52617 13.34227,-27.68263 5.2924,-11.15645 2.36828,-20.53653 2.36828,-20.53653 l -21.76748,21.48283 -35.95948,53.46608 c 0,0 -7.11094,8.73687 -12.01939,11.12824 -3.10167,1.51112 -6.84604,2.37403 -10.21872,1.64683 -3.76852,-0.81255 -9.6453,-6.38167 -9.6453,-6.38167"
         id="path4928"
         inkscape:connector-curvature="0"
         sodipodi:nodetypes="cssccsczszazcccaac" />
      <path
         style="fill:none;stroke:#ffff99;stroke-width:3;stroke-linecap:butt;stroke-linejoin:miter;stroke-miterlimit:4;stroke-opacity:1;stroke-dasharray:none"
         d="m 495.16399,260.909 c 0,0 12.28117,18.5348 40.23825,23.92473 27.95707,5.38994 90.84501,9.46303 90.84501,9.46303"
         id="path4930"
         inkscape:connector-curvature="0"
         sodipodi:nodetypes="czc" />
      <path
         style="fill:none;stroke:#ffff99;stroke-width:3;stroke-linecap:butt;stroke-linejoin:miter;stroke-miterlimit:4;stroke-opacity:1;stroke-dasharray:none"
         d="M 616.77461,383.26199 502.45902,343.09229"
         id="path4932"
         inkscape:connector-curvature="0"
         sodipodi:nodetypes="cc" />
      <path
         style="fill:none;stroke:#ffff99;stroke-width:3;stroke-linecap:butt;stroke-linejoin:miter;stroke-miterlimit:4;stroke-opacity:1;stroke-dasharray:none"
         d="m 398.1884,433.4032 0.94631,0"
         id="path4934"
         inkscape:connector-curvature="0" />
      <path
         style="fill:none;stroke:#ffff99;stroke-width:3;stroke-linecap:butt;stroke-linejoin:miter;stroke-miterlimit:4;stroke-opacity:1;stroke-dasharray:none"
         d="m 398.66156,432.93003 c 0,0 6.51312,6.43567 10.64438,8.12704 2.13354,0.87347 6.86221,0.86283 6.86221,0.86283 0,0 9.91402,-2.46985 9.46302,-5.20467 -1.18123,-7.1628 -14.96147,-19.09139 -14.61252,-19.135"
         id="path4936"
         inkscape:connector-curvature="0"
         sodipodi:nodetypes="cscsc" />
      <path
         style="fill:none;stroke:#ffff99;stroke-width:3;stroke-linecap:butt;stroke-linejoin:miter;stroke-miterlimit:4;stroke-opacity:1;stroke-dasharray:none"
         d="m 427.61571,392.31258 16.14903,33.25605"
         id="path4938"
         inkscape:connector-curvature="0"
         sodipodi:nodetypes="cc" />
      <path
         style="fill:none;stroke:#ffff99;stroke-width:3;stroke-linecap:butt;stroke-linejoin:miter;stroke-miterlimit:4;stroke-opacity:1;stroke-dasharray:none"
         d="m 154.77283,311.19047 c 0,0 56.79516,-13.33369 85.23713,-19.80751 15.64791,-3.5617 46.99162,-10.47248 46.99162,-10.47248"
         id="path4940"
         inkscape:connector-curvature="0"
         sodipodi:nodetypes="cac" />
      <path
         style="fill:none;stroke:#ffff99;stroke-width:3;stroke-linecap:butt;stroke-linejoin:miter;stroke-miterlimit:4;stroke-opacity:1;stroke-dasharray:none"
         d="m 169.22862,388.37461 c 31.92387,-12.09382 56.05857,-18.66077 91.35539,-21.64612 7.62912,0.93483 22.73165,3.86899 22.73165,3.86899"
         id="path4942"
         inkscape:connector-curvature="0"
         sodipodi:nodetypes="ccc" />
      <path
         style="fill:none;stroke:#ffff99;stroke-width:3;stroke-linecap:butt;stroke-linejoin:miter;stroke-miterlimit:4;stroke-opacity:1;stroke-dasharray:none"
         d="m 188.36079,194.1551 c 57.49666,29.22839 28.31857,14.42661 79.22779,36.72424"
         id="path4944"
         inkscape:connector-curvature="0"
         sodipodi:nodetypes="cc" />
      <path
         style="fill:none;stroke:#ffff99;stroke-width:3;stroke-linecap:butt;stroke-linejoin:miter;stroke-miterlimit:4;stroke-opacity:1;stroke-dasharray:none"
         d="M 238.71193,290.59521 159.95416,261.96095"
         id="path4946"
         inkscape:connector-curvature="0"
         sodipodi:nodetypes="cc" />
      <path
         style="fill:none;stroke:#ffff99;stroke-width:3;stroke-linecap:butt;stroke-linejoin:miter;stroke-miterlimit:4;stroke-opacity:1;stroke-dasharray:none"
         d="m 443.53182,425.13724 c 0,0 4.21691,6.31374 3.06559,9.40281 -1.31692,3.53334 -5.92629,5.61213 -9.69038,5.83658 -4.24966,0.25341 -11.64595,-5.24275 -11.64595,-5.24275"
         id="path4948"
         inkscape:connector-curvature="0"
         sodipodi:nodetypes="caac" />
      <path
         style="fill:none;stroke:#ffff99;stroke-width:3;stroke-linecap:butt;stroke-linejoin:miter;stroke-miterlimit:4;stroke-opacity:1;stroke-dasharray:none"
         d="m 425.46444,437.52275 0,-2.38615"
         id="path4950"
         inkscape:connector-curvature="0" />
      <path
         style="fill:none;stroke:#ffff99;stroke-width:3;stroke-linecap:butt;stroke-linejoin:miter;stroke-miterlimit:4;stroke-opacity:1;stroke-dasharray:none"
         d="m 442.35448,422.47492 c 6.70108,7.28173 9.18488,4.4974 15.0072,2.50119"
         id="path4952"
         inkscape:connector-curvature="0" />
      <path
         style="fill:none;stroke:#ffff99;stroke-width:3;stroke-linecap:butt;stroke-linejoin:miter;stroke-miterlimit:4;stroke-opacity:1;stroke-dasharray:none"
         d="m 336.52579,179.76486 c 15.32536,-34.9562 11.58995,-77.21911 16.17459,-93.72379"
         id="path4954"
         inkscape:connector-curvature="0"
         sodipodi:nodetypes="cc" />
      <path
         style="fill:none;stroke:#ffff99;stroke-width:3;stroke-linecap:butt;stroke-linejoin:miter;stroke-miterlimit:4;stroke-opacity:1;stroke-dasharray:none"
         d="m 422.30175,191.36198 c -7.53207,-23.787 -6.32573,-83.9302 4.05385,-105.75635"
         id="path4956"
         inkscape:connector-curvature="0"
         sodipodi:nodetypes="cc" />
    </g>
  </g>
</svg>
